<?xml version="1.0" encoding="UTF-8"?>
<svg width="1200pt" height="1200pt" version="1.1" viewBox="0 0 1200 1200" xmlns="http://www.w3.org/2000/svg">
 <g fill="#fff">
  <path d="m980 860c-40.98 0-76.105 24.684-91.57 60h-175.78c-16.523-46.57-60.469-80.004-112.66-80.004s-96.098 33.434-112.66 80.004h-175.78c-15.469-35.316-50.594-60-91.57-60-55.234 0-99.996 44.762-99.996 99.996s44.762 99.996 99.996 99.996c41.016 0 76.141-24.758 91.57-60h175.78c16.523 46.488 60.469 80.004 112.66 80.004s96.133-33.516 112.66-80.004h175.78c15.434 35.242 50.555 60 91.57 60 55.234 0 99.996-44.762 99.996-99.996s-44.762-99.996-99.996-99.996zm-380 139.99c-22.117 0-39.996-17.879-39.996-39.996s17.879-39.996 39.996-39.996 39.996 17.879 39.996 39.996-17.879 39.996-39.996 39.996z"/>
  <path d="m600 120c-154.57 0-280 125.3-280 280 0 77.27 31.32 147.27 82.031 197.98l197.96 182.03 198.01-182.11c50.699-50.629 82.031-120.62 81.984-197.96 0-154.54-125.34-279.92-280-279.92zm0 400c-66.254 0-120-53.746-120-120s53.746-120 120-120c66.289 0 120 53.746 120 120 0 66.25-53.711 120-120 120z"/>
 </g>
</svg>
